<svg width="112" height="25" viewBox="0 0 112 25" fill="none" xmlns="http://www.w3.org/2000/svg">
<path d="M7.136 18L0.352 0.688H4.288L9.504 14.8H8.064L13.28 0.688H17.248L10.432 18H7.136ZM26.5613 18.384C24.8333 18.384 23.2973 17.9893 21.9533 17.2C20.6306 16.3893 19.5959 15.3013 18.8493 13.936C18.1026 12.5493 17.7293 11.0027 17.7293 9.296C17.7293 7.54667 18.1026 6 18.8493 4.656C19.6173 3.312 20.6413 2.256 21.9213 1.488C23.2013 0.698666 24.6519 0.303999 26.2733 0.303999C27.5746 0.303999 28.7373 0.527999 29.7613 0.976C30.7853 1.424 31.6493 2.04267 32.3533 2.832C33.0573 3.6 33.5906 4.48533 33.9533 5.488C34.3373 6.49067 34.5293 7.55733 34.5293 8.688C34.5293 8.96533 34.5186 9.25333 34.4973 9.552C34.4759 9.85067 34.4333 10.128 34.3693 10.384H20.5773V7.504H32.3213L30.5933 8.816C30.8066 7.77067 30.7319 6.84267 30.3693 6.032C30.0279 5.2 29.4946 4.54933 28.7693 4.08C28.0653 3.58933 27.2333 3.344 26.2733 3.344C25.3133 3.344 24.4599 3.58933 23.7133 4.08C22.9666 4.54933 22.3906 5.232 21.9853 6.128C21.5799 7.00267 21.4199 8.06933 21.5053 9.328C21.3986 10.5013 21.5586 11.5253 21.9853 12.4C22.4333 13.2747 23.0519 13.9573 23.8413 14.448C24.6519 14.9387 25.5693 15.184 26.5933 15.184C27.6386 15.184 28.5239 14.9493 29.2493 14.48C29.9959 14.0107 30.5826 13.4027 31.0093 12.656L33.9533 14.096C33.6119 14.9067 33.0786 15.6427 32.3533 16.304C31.6493 16.944 30.7959 17.456 29.7933 17.84C28.8119 18.2027 27.7346 18.384 26.5613 18.384ZM37.0983 18V0.688H40.5543V4.176L40.2343 3.664C40.6183 2.53333 41.2369 1.72267 42.0903 1.232C42.9436 0.719999 43.9676 0.463999 45.1623 0.463999H46.2183V3.76H44.7143C43.5196 3.76 42.5489 4.13333 41.8023 4.88C41.0769 5.60533 40.7143 6.65067 40.7143 8.016V18H37.0983ZM47.732 18V0.688H51.188V4.432L50.74 3.856C51.1027 2.68267 51.764 1.79733 52.724 1.2C53.684 0.602666 54.7827 0.303999 56.02 0.303999C57.4067 0.303999 58.6333 0.677333 59.7 1.424C60.788 2.14933 61.5133 3.12 61.876 4.336L60.852 4.432C61.364 3.04533 62.1427 2.01067 63.188 1.328C64.2547 0.645332 65.4707 0.303999 66.836 0.303999C68.0307 0.303999 69.108 0.581333 70.068 1.136C71.0493 1.69067 71.828 2.45867 72.404 3.44C72.98 4.42133 73.268 5.54133 73.268 6.8V18H69.652V7.792C69.652 6.91733 69.492 6.18133 69.172 5.584C68.8733 4.96533 68.4467 4.496 67.892 4.176C67.3587 3.83467 66.7293 3.664 66.004 3.664C65.2787 3.664 64.6387 3.83467 64.084 4.176C63.5293 4.496 63.092 4.96533 62.772 5.584C62.452 6.20267 62.292 6.93867 62.292 7.792V18H58.708V7.792C58.708 6.91733 58.548 6.18133 58.228 5.584C57.9293 4.96533 57.5027 4.496 56.948 4.176C56.4147 3.83467 55.7747 3.664 55.028 3.664C54.3027 3.664 53.6627 3.83467 53.108 4.176C52.5533 4.496 52.116 4.96533 51.796 5.584C51.4973 6.20267 51.348 6.93867 51.348 7.792V18H47.732ZM81.3623 18.384C80.1889 18.384 79.1543 18.1813 78.2583 17.776C77.3836 17.3493 76.7009 16.7733 76.2103 16.048C75.7196 15.3013 75.4743 14.4267 75.4743 13.424C75.4743 12.4853 75.6769 11.6427 76.0823 10.896C76.5089 10.1493 77.1596 9.52 78.0343 9.008C78.9089 8.496 80.0076 8.13333 81.3303 7.92L87.3463 6.928V9.776L82.0343 10.704C81.0743 10.8747 80.3703 11.184 79.9223 11.632C79.4743 12.0587 79.2503 12.6133 79.2503 13.296C79.2503 13.9573 79.4956 14.5013 79.9863 14.928C80.4983 15.3333 81.1489 15.536 81.9383 15.536C82.9196 15.536 83.7729 15.3227 84.4983 14.896C85.2449 14.4693 85.8209 13.904 86.2263 13.2C86.6316 12.4747 86.8343 11.6747 86.8343 10.8V6.352C86.8343 5.49867 86.5143 4.80533 85.8743 4.272C85.2556 3.71733 84.4236 3.44 83.3783 3.44C82.4183 3.44 81.5756 3.696 80.8503 4.208C80.1463 4.69867 79.6236 5.33867 79.2823 6.128L76.2743 4.624C76.5943 3.77067 77.1169 3.024 77.8423 2.384C78.5676 1.72267 79.4103 1.21067 80.3703 0.848C81.3516 0.485332 82.3863 0.303999 83.4743 0.303999C84.8396 0.303999 86.0449 0.559999 87.0903 1.072C88.1569 1.584 88.9783 2.29867 89.5543 3.216C90.1516 4.112 90.4503 5.15733 90.4503 6.352V18H86.9943V14.864L87.7303 14.96C87.3249 15.664 86.8023 16.272 86.1623 16.784C85.5436 17.296 84.8289 17.6907 84.0183 17.968C83.2289 18.2453 82.3436 18.384 81.3623 18.384ZM93.7182 24.4V0.688H97.1742V4.272L96.7582 3.44C97.3982 2.45867 98.2516 1.69067 99.3182 1.136C100.385 0.581333 101.601 0.303999 102.966 0.303999C104.609 0.303999 106.081 0.698666 107.382 1.488C108.705 2.27733 109.74 3.35467 110.486 4.72C111.254 6.08533 111.638 7.62133 111.638 9.328C111.638 11.0347 111.254 12.5707 110.486 13.936C109.74 15.3013 108.716 16.3893 107.414 17.2C106.113 17.9893 104.63 18.384 102.966 18.384C101.622 18.384 100.396 18.1067 99.2862 17.552C98.1982 16.9973 97.3556 16.1973 96.7582 15.152L97.3342 14.48V24.4H93.7182ZM102.614 15.024C103.638 15.024 104.545 14.7787 105.334 14.288C106.124 13.7973 106.742 13.1253 107.19 12.272C107.66 11.3973 107.894 10.416 107.894 9.328C107.894 8.24 107.66 7.26933 107.19 6.416C106.742 5.56267 106.124 4.89067 105.334 4.4C104.545 3.90933 103.638 3.664 102.614 3.664C101.612 3.664 100.705 3.90933 99.8942 4.4C99.1049 4.89067 98.4756 5.56267 98.0062 6.416C97.5582 7.26933 97.3342 8.24 97.3342 9.328C97.3342 10.416 97.5582 11.3973 98.0062 12.272C98.4756 13.1253 99.1049 13.7973 99.8942 14.288C100.705 14.7787 101.612 15.024 102.614 15.024Z" fill="black"/>
</svg>
